<svg width="324" height="61" viewBox="0 0 324 61" fill="none" xmlns="http://www.w3.org/2000/svg">
<path d="M14.568 21.088V10.144C14.568 9.13066 14.3653 8.49733 13.96 8.244C13.6053 7.94 12.896 7.788 11.832 7.788C10.768 7.788 10.0333 7.94 9.628 8.244C9.22267 8.49733 9.02 9.13066 9.02 10.144V51.336C9.02 52.3493 9.22267 53.008 9.628 53.312C10.0333 53.5653 10.768 53.692 11.832 53.692C12.896 53.692 13.6053 53.5653 13.96 53.312C14.3653 53.008 14.568 52.3493 14.568 51.336V38.872H23.384V51.336C23.384 53.1093 23.232 54.528 22.928 55.592C21.9653 58.8853 18.2667 60.532 11.832 60.532C7.82933 60.532 5.01733 60 3.396 58.936C1.31867 57.568 0.28 55.0347 0.28 51.336V10.144C0.28 6.44533 1.31867 3.912 3.396 2.544C5.01733 1.48 7.82933 0.947999 11.832 0.947999C18.2667 0.947999 21.9653 2.59467 22.928 5.888C23.232 6.952 23.384 8.37066 23.384 10.144V21.088H14.568ZM53.9128 60H45.0208L43.7288 45.408H36.8128L35.2928 60H27.4648L34.1528 1.48H47.2248L53.9128 60ZM40.4608 9.536L37.6488 37.732H42.9688L40.4608 9.536ZM56.7747 60V1.48H66.7307C72.3041 1.48 75.8507 2.26533 77.3707 3.836C78.8907 5.356 79.6507 8.90266 79.6507 14.476V21.468C79.6507 28.5107 78.7387 32.6907 76.9147 34.008C76.2054 34.5147 75.3187 34.8947 74.2547 35.148L80.8667 60H71.8227L65.5907 35.072H65.4387V60H56.7747ZM65.4387 8.472V28.612H68.6307C69.0867 28.612 69.4414 28.536 69.6947 28.384C70.4041 27.9787 70.7587 25.876 70.7587 22.076V14.096C70.7587 10.752 70.4294 8.928 69.7707 8.624C69.5681 8.52266 69.1881 8.472 68.6307 8.472H65.4387Z" fill="#B7D5ED"/>
<path d="M84.2214 38.264H92.8854V51.336C92.8854 52.3493 93.0881 53.008 93.4934 53.312C93.8987 53.5653 94.6334 53.692 95.6974 53.692C96.7614 53.692 97.4707 53.5653 97.8254 53.312C98.2307 53.008 98.4334 52.3493 98.4334 51.336V44.344C98.4334 42.672 98.1294 41.2533 97.5214 40.088C97.1161 39.2773 96.5081 38.34 95.6974 37.276C95.4441 36.9213 93.6201 34.692 90.2254 30.588C87.8441 27.7 86.2227 25.42 85.3614 23.748C84.6014 22.2787 84.2214 20.1 84.2214 17.212V9.84C84.2214 6.14133 85.2601 3.65866 87.3374 2.392C88.9081 1.42933 91.6947 0.947999 95.6974 0.947999C102.183 0.947999 105.856 2.59467 106.717 5.888C107.021 7.00266 107.173 8.42133 107.173 10.144V22H98.4334V10.144C98.4334 9.13066 98.2307 8.49733 97.8254 8.244C97.4707 7.94 96.7614 7.788 95.6974 7.788C94.6334 7.788 93.8987 7.94 93.4934 8.244C93.0881 8.49733 92.8854 9.13066 92.8854 10.144V16.908C92.8854 18.276 93.2147 19.5427 93.8734 20.708C94.1774 21.2653 94.7854 22.1267 95.6974 23.292C97.5214 25.5213 99.3201 27.7507 101.093 29.98C103.525 32.9693 105.121 35.2493 105.881 36.82C106.743 38.5427 107.173 40.8227 107.173 43.66V51.64C107.173 55.3387 106.135 57.8213 104.057 59.088C102.487 60.0507 99.7001 60.532 95.6974 60.532C89.2121 60.532 85.5387 58.8853 84.6774 55.592C84.3734 54.4773 84.2214 53.0587 84.2214 51.336V38.264ZM112.064 1.48H120.88V23.672H125.896V1.48H134.712V60H125.896V31.652H120.88V60H112.064V1.48ZM139.737 10.144C139.737 6.39467 140.776 3.86133 142.853 2.544C144.474 1.48 147.286 0.947999 151.289 0.947999C157.724 0.947999 161.422 2.59467 162.385 5.888C162.689 6.952 162.841 8.37066 162.841 10.144V51.336C162.841 53.1093 162.689 54.528 162.385 55.592C161.422 58.8853 157.724 60.532 151.289 60.532C147.286 60.532 144.474 60 142.853 58.936C140.776 57.6187 139.737 55.0853 139.737 51.336V10.144ZM154.025 51.336V10.144C154.025 9.13066 153.822 8.49733 153.417 8.244C153.062 7.94 152.353 7.788 151.289 7.788C150.225 7.788 149.49 7.94 149.085 8.244C148.68 8.49733 148.477 9.13066 148.477 10.144V51.336C148.477 52.3493 148.68 53.008 149.085 53.312C149.49 53.5653 150.225 53.692 151.289 53.692C152.353 53.692 153.062 53.5653 153.417 53.312C153.822 53.008 154.025 52.3493 154.025 51.336ZM196.226 1.48H203.294L197.366 60H188.018L185.13 16.3H184.978L180.798 60H170.842L165.37 1.48H174.262L176.846 43.812H176.998L180.418 1.48H189.766L192.806 43.812H193.034L196.226 1.48ZM206.4 60V1.48H216.356C221.929 1.48 225.476 2.26533 226.996 3.836C228.516 5.356 229.276 8.90266 229.276 14.476V21.468C229.276 28.5107 228.364 32.6907 226.54 34.008C225.83 34.5147 224.944 34.8947 223.88 35.148L230.492 60H221.448L215.216 35.072H215.064V60H206.4ZM215.064 8.472V28.612H218.256C218.712 28.612 219.066 28.536 219.32 28.384C220.029 27.9787 220.384 25.876 220.384 22.076V14.096C220.384 10.752 220.054 8.928 219.396 8.624C219.193 8.52266 218.813 8.472 218.256 8.472H215.064ZM233.846 10.144C233.846 6.39467 234.885 3.86133 236.962 2.544C238.584 1.48 241.396 0.947999 245.398 0.947999C251.833 0.947999 255.532 2.59467 256.494 5.888C256.798 6.952 256.95 8.37066 256.95 10.144V51.336C256.95 53.1093 256.798 54.528 256.494 55.592C255.532 58.8853 251.833 60.532 245.398 60.532C241.396 60.532 238.584 60 236.962 58.936C234.885 57.6187 233.846 55.0853 233.846 51.336V10.144ZM248.134 51.336V10.144C248.134 9.13066 247.932 8.49733 247.526 8.244C247.172 7.94 246.462 7.788 245.398 7.788C244.334 7.788 243.6 7.94 243.194 8.244C242.789 8.49733 242.586 9.13066 242.586 10.144V51.336C242.586 52.3493 242.789 53.008 243.194 53.312C243.6 53.5653 244.334 53.692 245.398 53.692C246.462 53.692 247.172 53.5653 247.526 53.312C247.932 53.008 248.134 52.3493 248.134 51.336ZM261.456 10.144C261.456 6.39467 262.494 3.86133 264.572 2.544C266.193 1.48 269.005 0.947999 273.008 0.947999C279.442 0.947999 283.141 2.59467 284.104 5.888C284.408 6.952 284.56 8.37066 284.56 10.144V51.336C284.56 53.1093 284.408 54.528 284.104 55.592C283.141 58.8853 279.442 60.532 273.008 60.532C269.005 60.532 266.193 60 264.572 58.936C262.494 57.6187 261.456 55.0853 261.456 51.336V10.144ZM275.744 51.336V10.144C275.744 9.13066 275.541 8.49733 275.136 8.244C274.781 7.94 274.072 7.788 273.008 7.788C271.944 7.788 271.209 7.94 270.804 8.244C270.398 8.49733 270.196 9.13066 270.196 10.144V51.336C270.196 52.3493 270.398 53.008 270.804 53.312C271.209 53.5653 271.944 53.692 273.008 53.692C274.072 53.692 274.781 53.5653 275.136 53.312C275.541 53.008 275.744 52.3493 275.744 51.336ZM310.269 1.48H323.189V60H315.589V13.108H315.361L310.193 60H302.745L297.425 13.108H297.273V60H289.521V1.48H302.441L306.849 43.128H307.001L310.269 1.48Z" fill="white"/>
</svg>
