<svg width="544" height="757" viewBox="0 0 544 757" fill="none" xmlns="http://www.w3.org/2000/svg">
<g style="mix-blend-mode:overlay">
<path fill-rule="evenodd" clip-rule="evenodd" d="M401.693 -61H359.103L544 123.898V81.304L401.693 -61ZM544 -21.5244L504.525 -61H544V-21.5244ZM544 226.725L256.271 -61H213.681L544 269.319V226.725ZM544 372.147L110.849 -61H68.2585L544 414.742V372.147ZM544 517.57L-34.5732 -61H-77.1652L544 560.164V517.57ZM544 662.992L-179.994 -61H-222.587L544 705.586V662.992ZM492.582 757L-274 -9.58488V33.0089L449.992 757H492.582ZM347.16 757L-274 135.837V178.43L304.57 757H347.16ZM201.738 757L-274 281.258V323.853L159.147 757H201.738ZM56.3156 757L-274 426.681V469.275L13.7251 757H56.3156ZM-89.1051 757L-274 572.103V614.697L-131.699 757H-89.1051ZM-234.527 757L-274 717.525V757H-234.527Z" fill="url(#paint0_linear_1_184)" fill-opacity="0.1"/>
</g>
<defs>
<linearGradient id="paint0_linear_1_184" x1="544" y1="368.567" x2="164.915" y2="368.567" gradientUnits="userSpaceOnUse">
<stop stop-color="white" stop-opacity="0"/>
<stop offset="1" stop-color="white"/>
</linearGradient>
</defs>
</svg>
